<svg width="24" height="24" viewBox="0 0 24 24" fill="none" xmlns="http://www.w3.org/2000/svg">
<path d="M6.93945 5.00002C6.93919 5.53046 6.72822 6.03906 6.35296 6.41394C5.9777 6.78883 5.46889 6.99929 4.93845 6.99902C4.40802 6.99876 3.89942 6.78779 3.52453 6.41253C3.14965 6.03727 2.93919 5.52846 2.93945 4.99802C2.93972 4.46759 3.15069 3.95899 3.52595 3.5841C3.90121 3.20922 4.41002 2.99876 4.94045 2.99902C5.47089 2.99929 5.97949 3.21026 6.35437 3.58552C6.72926 3.96078 6.93972 4.46959 6.93945 5.00002ZM6.99945 8.48002H2.99945V21H6.99945V8.48002ZM13.3195 8.48002H9.33945V21H13.2795V14.43C13.2795 10.77 18.0495 10.43 18.0495 14.43V21H21.9995V13.07C21.9995 6.90002 14.9395 7.13002 13.2795 10.16L13.3195 8.48002Z" fill="black"/>
</svg>
